# xmcd
#
# Track frame offsets:
#	150
#	11923
#	24462
#	40804
#	52017
#	66382
#	78851
#	88103
#	101101
#	114056
#	127406
#	139164
#	151466
#	162926
#	175759
#	194035
#	208487
#	221888
#	238428
#	253389
#	268936
#	283952
#	300376
#	309710
#	324442
#	333868
#	343486
#
# Disc length: 4700 seconds
#
# Revision: 0
# Processed by: cddbd v1.5.2PL0 Copyright (c) Steve Scherf et al.
# Submitted via: audiograbber 1.83.01
#
DISCID=b6125a1b
DTITLE=Various Artist - 101 Country Hits - CD 1
DYEAR=2007
DGENRE=Country
TTITLE0=Johnny Cash - Ring Of Fire
TTITLE1=Dolly Parton - 9 To 5
TTITLE2=The Charlie Daniels Band - The Devil Went Down To Georia
TTITLE3=Jerry Reed - Guitar Man
TTITLE4=Glen Campbell - Rhinestone Cowboy
TTITLE5=Johnny Cash and June Carter - Jackson
TTITLE6=Tammy Wynette - Your Good Girl's Gonna Go Bad
TTITLE7=Lynn Anderson - Rose Garden
TTITLE8=Billie Joe Spears - '57 Chevrolet
TTITLE9=Dr. Hook - When You're In Love With A Beautiful Woman
TTITLE10=Roy Orbison - Dream Baby
TTITLE11=Charlie Rich - The Most Beautiful Girl
TTITLE12=Crystal Gayle - Don't It Make My Brown Eyes Blue
TTITLE13=Kenny Rogers - Ruby Don't Take Your Love To Town
TTITLE14=Billy Swan - I Can Help
TTITLE15=Eddie Rabbitt - I Love A Rainy Night
TTITLE16=Hal Ketchum - Small Town Saturday Night
TTITLE17=Rodney Atkins - If You're Going Through Hell (Before The Devil Even Kn
TTITLE17=ows)
TTITLE18=Jo Dee Messina - My Give A Damn's Busted
TTITLE19=Juice Newton - Queen Of Hearts
TTITLE20=Asleep At The Wheel - Lay Down Sally
TTITLE21=Steve Holy - Brand New Girlfriend
TTITLE22=Johnnie Allan - The Promised Land
TTITLE23=Hayseed Dixie - Dueling Banjos
TTITLE24=Flatt and Scruggs - The Ballad Of Jed Clampett
TTITLE25=Waylon Jennings - Theme From The Dukes Of Hazzard (Good Ol' Boys)
TTITLE26=The Everly Brothers - Wake Up Little Susie
EXTD=
EXTT0=
EXTT1=
EXTT2=
EXTT3=
EXTT4=
EXTT5=
EXTT6=
EXTT7=
EXTT8=
EXTT9=
EXTT10=
EXTT11=
EXTT12=
EXTT13=
EXTT14=
EXTT15=
EXTT16=
EXTT17=
EXTT18=
EXTT19=
EXTT20=
EXTT21=
EXTT22=
EXTT23=
EXTT24=
EXTT25=
EXTT26=
PLAYORDER=
